HIERARCHY
ROOT Hips
{
	OFFSET 0.000000 87.230942 0.000000
	CHANNELS 6 Xposition Yposition Zposition Xrotation Yrotation Zrotation
	JOINT Pelvis
	{
		OFFSET 0.000000 0.000000 0.000000
		CHANNELS 3 Xrotation Yrotation Zrotation
		JOINT LeftUpLeg
		{
			OFFSET 12.017000 -9.376404 -2.439400
			CHANNELS 3 Xrotation Yrotation Zrotation
			JOINT LeftLeg
			{
				OFFSET -0.007312 -32.846973 2.110600
				CHANNELS 3 Xrotation Yrotation Zrotation
				JOINT LeftFoot
				{
					OFFSET 0.007312 -32.065170 -0.570400
					CHANNELS 3 Xrotation Yrotation Zrotation
					JOINT LeftToeBase
					{
						OFFSET 0.728300 -11.045900 13.180700
						CHANNELS 3 Xrotation Yrotation Zrotation
						End Site
						{
							OFFSET 0.000000 17.212589 0.000000
						}
					}
				}
				JOINT LeftPantLeg
				{
					OFFSET 0.002788 -16.709013 -3.143600
					CHANNELS 3 Xrotation Yrotation Zrotation
					End Site
					{
						OFFSET -0.605125 24.528742 0.000000
					}
				}
			}
			JOINT Left_Butt
			{
				OFFSET -6.630234 1.326584 -3.183700
				CHANNELS 3 Xrotation Yrotation Zrotation
				End Site
				{
					OFFSET -0.498041 20.188049 0.000000
				}
			}
		}
		JOINT RightUpLeg
		{
			OFFSET -11.717000 -9.376404 -2.439400
			CHANNELS 3 Xrotation Yrotation Zrotation
			JOINT RightLeg
			{
				OFFSET -0.003241 -32.846912 2.110600
				CHANNELS 3 Xrotation Yrotation Zrotation
				JOINT RightFoot
				{
					OFFSET 0.003241 -32.065136 -0.570500
					CHANNELS 3 Xrotation Yrotation Zrotation
					JOINT RightToeBase
					{
						OFFSET -0.728300 -11.045901 13.180700
						CHANNELS 3 Xrotation Yrotation Zrotation
						End Site
						{
							OFFSET 0.000000 17.212593 0.000000
						}
					}
				}
				JOINT RightPantLeg
				{
					OFFSET 0.008142 -16.708982 -3.143700
					CHANNELS 3 Xrotation Yrotation Zrotation
					End Site
					{
						OFFSET 0.605088 24.528715 0.000000
					}
				}
			}
			JOINT Right_Butt
			{
				OFFSET 6.630732 1.326584 -3.183700
				CHANNELS 3 Xrotation Yrotation Zrotation
				End Site
				{
					OFFSET 0.498015 20.188240 0.000000
				}
			}
		}
	}
	JOINT Spine
	{
		OFFSET -0.062400 7.848404 3.918300
		CHANNELS 3 Xrotation Yrotation Zrotation
		JOINT Spine1
		{
			OFFSET -0.072800 11.422302 0.713400
			CHANNELS 3 Xrotation Yrotation Zrotation
			JOINT Spine2
			{
				OFFSET -0.083200 13.054001 -1.931600
				CHANNELS 3 Xrotation Yrotation Zrotation
				JOINT Neck
				{
					OFFSET -0.092200 14.121796 -5.138800
					CHANNELS 3 Xrotation Yrotation Zrotation
					JOINT Head
					{
						OFFSET 0.000200 10.447403 -0.842000
						CHANNELS 3 Xrotation Yrotation Zrotation
						JOINT Visor
						{
							OFFSET 0.457100 25.671204 16.550400
							CHANNELS 3 Xrotation Yrotation Zrotation
							End Site
							{
								OFFSET 0.000000 26.061493 0.000000
							}
						}
						JOINT HairMidA
						{
							OFFSET 0.459400 31.585403 8.437400
							CHANNELS 3 Xrotation Yrotation Zrotation
							End Site
							{
								OFFSET 0.000000 26.061493 0.000000
							}
						}
						JOINT HairMidB
						{
							OFFSET 0.464000 33.309204 -8.389700
							CHANNELS 3 Xrotation Yrotation Zrotation
							End Site
							{
								OFFSET 0.000000 26.061493 0.000000
							}
						}
						JOINT HairMidC
						{
							OFFSET 0.466600 27.991196 -17.375099
							CHANNELS 3 Xrotation Yrotation Zrotation
							End Site
							{
								OFFSET 0.000000 26.061493 0.000000
							}
						}
						JOINT HairMidD
						{
							OFFSET 0.467700 17.888092 -21.169500
							CHANNELS 3 Xrotation Yrotation Zrotation
							End Site
							{
								OFFSET 0.000000 26.061493 0.000000
							}
						}
						JOINT HairMidE
						{
							OFFSET 5.325700 3.514603 -14.369699
							CHANNELS 3 Xrotation Yrotation Zrotation
							End Site
							{
								OFFSET 0.000000 26.061493 0.000000
							}
						}
						JOINT HairMidF
						{
							OFFSET -4.394100 3.514603 -14.372400
							CHANNELS 3 Xrotation Yrotation Zrotation
							End Site
							{
								OFFSET 0.000000 26.061493 0.000000
							}
						}
						JOINT HairLeftA
						{
							OFFSET 15.319900 25.746506 2.623300
							CHANNELS 3 Xrotation Yrotation Zrotation
							End Site
							{
								OFFSET 0.000000 26.061493 0.000000
							}
						}
						JOINT HairLeftB
						{
							OFFSET 12.619500 29.289398 -8.731499
							CHANNELS 3 Xrotation Yrotation Zrotation
							End Site
							{
								OFFSET 0.000000 26.061493 0.000000
							}
						}
						JOINT HairLeftC
						{
							OFFSET 15.714800 15.959900 2.909800
							CHANNELS 3 Xrotation Yrotation Zrotation
							End Site
							{
								OFFSET 0.000000 26.061493 0.000000
							}
						}
						JOINT HairLeftD
						{
							OFFSET 16.101700 18.437408 -7.553200
							CHANNELS 3 Xrotation Yrotation Zrotation
							End Site
							{
								OFFSET 0.000000 26.061493 0.000000
							}
						}
						JOINT HairLeftE
						{
							OFFSET 9.731900 17.915009 -18.316799
							CHANNELS 3 Xrotation Yrotation Zrotation
							End Site
							{
								OFFSET 0.000000 26.061493 0.000000
							}
						}
						JOINT HairLeftF
						{
							OFFSET 11.204300 4.953598 -9.668100
							CHANNELS 3 Xrotation Yrotation Zrotation
							End Site
							{
								OFFSET 0.000000 26.061493 0.000000
							}
						}
						JOINT HairRightA
						{
							OFFSET -14.397900 25.746307 2.615100
							CHANNELS 3 Xrotation Yrotation Zrotation
							End Site
							{
								OFFSET 0.000000 26.061493 0.000000
							}
						}
						JOINT HairRightB
						{
							OFFSET -11.691200 29.289200 -8.738199
							CHANNELS 3 Xrotation Yrotation Zrotation
							End Site
							{
								OFFSET 0.000000 26.061493 0.000000
							}
						}
						JOINT HairRightC
						{
							OFFSET -14.792900 15.959702 2.901400
							CHANNELS 3 Xrotation Yrotation Zrotation
							End Site
							{
								OFFSET 0.000000 26.061493 0.000000
							}
						}
						JOINT HairRightD
						{
							OFFSET -15.174000 18.437195 -7.561900
							CHANNELS 3 Xrotation Yrotation Zrotation
							End Site
							{
								OFFSET 0.000000 26.061493 0.000000
							}
						}
						JOINT HairRightE
						{
							OFFSET -8.798200 17.914902 -18.322001
							CHANNELS 3 Xrotation Yrotation Zrotation
							End Site
							{
								OFFSET 0.000000 26.061493 0.000000
							}
						}
						JOINT HairRightF
						{
							OFFSET -10.275200 4.953506 -9.674099
							CHANNELS 3 Xrotation Yrotation Zrotation
							End Site
							{
								OFFSET 0.000000 26.061493 0.000000
							}
						}
					}
				}
				JOINT LeftShoulder
				{
					OFFSET 5.133500 7.341202 -1.867600
					CHANNELS 3 Xrotation Yrotation Zrotation
					JOINT LeftArm
					{
						OFFSET 8.072663 0.936867 -2.176600
						CHANNELS 3 Xrotation Yrotation Zrotation
						JOINT LeftForeArm
						{
							OFFSET 31.271999 0.000000 0.000000
							CHANNELS 3 Xrotation Yrotation Zrotation
							JOINT LeftHand
							{
								OFFSET 31.771030 0.000000 0.000000
								CHANNELS 3 Xrotation Yrotation Zrotation
								JOINT LeftHandThumb1
								{
									OFFSET 2.886520 -2.557846 4.416640
									CHANNELS 3 Xrotation Yrotation Zrotation
									JOINT LeftHandThumb2
									{
										OFFSET 2.371025 -1.368912 1.368911
										CHANNELS 3 Xrotation Yrotation Zrotation
										JOINT LeftHandThumb3
										{
											OFFSET 2.243378 -1.295212 1.295213
											CHANNELS 3 Xrotation Yrotation Zrotation
											End Site
											{
												OFFSET -0.332611 2.876945 0.020015
											}
										}
									}
								}
								JOINT LeftHandIndex1
								{
									OFFSET 8.568985 -0.641945 3.119977
									CHANNELS 3 Xrotation Yrotation Zrotation
									JOINT LeftHandIndex2
									{
										OFFSET 3.348503 0.000000 0.000000
										CHANNELS 3 Xrotation Yrotation Zrotation
										JOINT LeftHandIndex3
										{
											OFFSET 3.314552 0.000000 0.000000
											CHANNELS 3 Xrotation Yrotation Zrotation
											End Site
											{
												OFFSET -1.032898 3.075485 0.678796
											}
										}
									}
								}
								JOINT LeftHandMiddle1
								{
									OFFSET 8.124603 0.000000 0.000000
									CHANNELS 3 Xrotation Yrotation Zrotation
									JOINT LeftHandMiddle2
									{
										OFFSET 4.166275 0.000000 0.000000
										CHANNELS 3 Xrotation Yrotation Zrotation
										JOINT LeftHandMiddle3
										{
											OFFSET 3.018135 0.000000 0.000000
											CHANNELS 3 Xrotation Yrotation Zrotation
											End Site
											{
												OFFSET -1.032700 2.767982 0.617226
											}
										}
									}
								}
								JOINT LeftHandRing1
								{
									OFFSET 8.571686 -0.031357 -2.884048
									CHANNELS 3 Xrotation Yrotation Zrotation
									JOINT LeftHandRing2
									{
										OFFSET 3.671181 0.000000 0.000000
										CHANNELS 3 Xrotation Yrotation Zrotation
										JOINT LeftHandRing3
										{
											OFFSET 2.728851 0.000000 0.000000
											CHANNELS 3 Xrotation Yrotation Zrotation
											End Site
											{
												OFFSET -0.815796 2.539223 0.577389
											}
										}
									}
								}
								JOINT LeftHandPinky1
								{
									OFFSET 7.854515 -0.675232 -5.213020
									CHANNELS 3 Xrotation Yrotation Zrotation
									JOINT LeftHandPinky2
									{
										OFFSET 3.068596 0.000000 0.000000
										CHANNELS 3 Xrotation Yrotation Zrotation
										JOINT LeftHandPinky3
										{
											OFFSET 2.396042 0.000000 0.000000
											CHANNELS 3 Xrotation Yrotation Zrotation
											End Site
											{
												OFFSET -0.524597 2.267998 0.567429
											}
										}
									}
								}
							}
							JOINT LeftSleeve
							{
								OFFSET 19.684509 -0.200119 0.476146
								CHANNELS 3 Xrotation Yrotation Zrotation
								End Site
								{
									OFFSET -0.031017 25.731133 -0.002868
								}
							}
						}
					}
				}
				JOINT RightShoulder
				{
					OFFSET -4.395900 7.341202 -1.870200
					CHANNELS 3 Xrotation Yrotation Zrotation
					JOINT RightArm
					{
						OFFSET -8.071453 0.936867 -2.181100
						CHANNELS 3 Xrotation Yrotation Zrotation
						JOINT RightForeArm
						{
							OFFSET -31.272011 0.000000 0.000000
							CHANNELS 3 Xrotation Yrotation Zrotation
							JOINT RightHand
							{
								OFFSET -31.771019 0.000000 0.000000
								CHANNELS 3 Xrotation Yrotation Zrotation
								JOINT RightHandThumb1
								{
									OFFSET -2.886520 -2.557808 4.416626
									CHANNELS 3 Xrotation Yrotation Zrotation
									JOINT RightHandThumb2
									{
										OFFSET -2.371056 -1.368927 1.368928
										CHANNELS 3 Xrotation Yrotation Zrotation
										JOINT RightHandThumb3
										{
											OFFSET -2.243362 -1.295204 1.295206
											CHANNELS 3 Xrotation Yrotation Zrotation
											End Site
											{
												OFFSET 0.332642 2.876938 0.020047
											}
										}
									}
								}
								JOINT RightHandIndex1
								{
									OFFSET -8.568993 -0.641953 3.120017
									CHANNELS 3 Xrotation Yrotation Zrotation
									JOINT RightHandIndex2
									{
										OFFSET -3.348518 0.000000 0.000000
										CHANNELS 3 Xrotation Yrotation Zrotation
										JOINT RightHandIndex3
										{
											OFFSET -3.314552 0.000000 0.000000
											CHANNELS 3 Xrotation Yrotation Zrotation
											End Site
											{
												OFFSET 1.032898 3.075478 0.678804
											}
										}
									}
								}
								JOINT RightHandMiddle1
								{
									OFFSET -8.124588 0.000000 0.000000
									CHANNELS 3 Xrotation Yrotation Zrotation
									JOINT RightHandMiddle2
									{
										OFFSET -4.166275 0.000000 0.000000
										CHANNELS 3 Xrotation Yrotation Zrotation
										JOINT RightHandMiddle3
										{
											OFFSET -3.018097 0.000000 0.000000
											CHANNELS 3 Xrotation Yrotation Zrotation
											End Site
											{
												OFFSET 1.032700 2.767937 0.617197
											}
										}
									}
								}
								JOINT RightHandRing1
								{
									OFFSET -8.571747 -0.031349 -2.884061
									CHANNELS 3 Xrotation Yrotation Zrotation
									JOINT RightHandRing2
									{
										OFFSET -3.671204 0.000000 0.000000
										CHANNELS 3 Xrotation Yrotation Zrotation
										JOINT RightHandRing3
										{
											OFFSET -2.728874 0.000000 0.000000
											CHANNELS 3 Xrotation Yrotation Zrotation
											End Site
											{
												OFFSET 0.815804 2.539261 0.577413
											}
										}
									}
								}
								JOINT RightHandPinky1
								{
									OFFSET -7.854561 -0.675247 -5.212970
									CHANNELS 3 Xrotation Yrotation Zrotation
									JOINT RightHandPinky2
									{
										OFFSET -3.068550 0.000000 0.000000
										CHANNELS 3 Xrotation Yrotation Zrotation
										JOINT RightHandPinky3
										{
											OFFSET -2.395981 0.000000 0.000000
											CHANNELS 3 Xrotation Yrotation Zrotation
											End Site
											{
												OFFSET 0.524605 2.267952 0.567413
											}
										}
									}
								}
							}
							JOINT RightSleeve
							{
								OFFSET -19.684753 -0.200165 0.476065
								CHANNELS 3 Xrotation Yrotation Zrotation
								End Site
								{
									OFFSET 0.031342 25.731255 -0.002917
								}
							}
						}
					}
				}
				JOINT Hood
				{
					OFFSET 0.369700 14.447800 -5.317800
					CHANNELS 3 Xrotation Yrotation Zrotation
					JOINT Hood1
					{
						OFFSET 0.001700 -5.553802 -5.895100
						CHANNELS 3 Xrotation Yrotation Zrotation
						JOINT Hood2
						{
							OFFSET -0.000200 -8.380501 0.763600
							CHANNELS 3 Xrotation Yrotation Zrotation
							End Site
							{
								OFFSET 0.000000 8.415215 0.000000
							}
						}
					}
				}
				JOINT Left_Breast
				{
					OFFSET 5.682500 3.120102 3.188800
					CHANNELS 3 Xrotation Yrotation Zrotation
					End Site
					{
						OFFSET 0.000000 10.528564 0.000000
					}
				}
				JOINT Right_Breast
				{
					OFFSET -4.947600 3.120102 3.185900
					CHANNELS 3 Xrotation Yrotation Zrotation
					End Site
					{
						OFFSET 0.000000 10.528564 0.000000
					}
				}
				JOINT Whistle
				{
					OFFSET 0.368200 11.471298 0.095400
					CHANNELS 3 Xrotation Yrotation Zrotation
					JOINT Whistle1
					{
						OFFSET -0.002000 -6.349899 7.479800
						CHANNELS 3 Xrotation Yrotation Zrotation
						JOINT Whistle2
						{
							OFFSET -0.001300 -8.217598 4.717600
							CHANNELS 3 Xrotation Yrotation Zrotation
							End Site
							{
								OFFSET 0.000000 9.475479 0.000000
							}
						}
					}
				}
			}
		}
		JOINT Belly
		{
			OFFSET 0.212400 1.593002 3.163700
			CHANNELS 3 Xrotation Yrotation Zrotation
			End Site
			{
				OFFSET 0.000000 7.496635 0.000000
			}
		}
	}
	JOINT FitGrandmaFacialAnim_Joint
	{
		OFFSET 1.150000 -86.211197 -1.220100
		CHANNELS 3 Xrotation Yrotation Zrotation
		End Site
		{
			OFFSET 0.000000 31.666618 0.000000
		}
	}
}
MOTION
Frames: 4
Frame Time: 0.016667
-1.464978 73.986580 0.611911 -5.398600 -46.174015 -0.123089 -0.000000 -0.000000 -0.000000 -29.900960 7.890985 18.569881 60.352296 -7.610511 4.290961 -27.983661 -7.405172 -15.180732 -0.000000 0.000002 0.000000 -0.000000 -0.000000 -0.000002 -0.000000 -0.000000 0.000000 -20.174159 -12.692052 -28.864557 60.076841 -8.146475 -7.760902 -31.735689 -8.093333 23.747168 -0.000000 -0.000001 0.000000 0.000000 0.000001 0.000003 0.000002 0.000002 0.000002 9.465712 7.114903 -1.724216 2.187716 0.989901 -0.915630 2.202830 0.982779 -0.894154 0.084651 13.220559 4.538679 8.920925 20.138135 -4.130232 -0.000000 0.000000 0.000000 -0.000000 0.000000 0.000000 -0.000000 0.000000 0.000000 -0.000000 0.000000 0.000000 -0.000000 0.000000 0.000000 -0.000000 0.000000 0.000000 -0.000000 0.000000 0.000000 -0.000000 0.000000 0.000000 -0.000000 0.000000 0.000000 -0.000000 0.000000 0.000000 -0.000000 0.000000 0.000000 -0.000000 0.000000 0.000000 -0.000000 0.000000 0.000000 -0.000000 0.000000 0.000000 -0.000000 0.000000 0.000000 -0.000000 0.000000 0.000000 -0.000000 0.000000 0.000000 -0.000000 0.000000 0.000000 -0.000000 0.000000 0.000000 1.117178 3.546350 -8.633309 -53.487020 4.935496 -51.503004 0.000051 -106.358067 0.000045 1.988606 -7.706152 -15.869244 -6.141222 -11.690799 -6.761690 9.914125 42.595519 3.409854 0.000001 -0.000001 0.000001 0.255310 3.378199 -45.814341 5.654067 5.847731 -88.067435 0.000003 -0.000001 0.000002 -0.461473 3.841584 -39.722686 6.450736 5.820339 -95.892871 -0.000001 -0.000003 -0.000000 0.469723 4.966835 -39.799447 8.181089 5.368651 -113.502998 0.000001 -0.000000 -0.000002 -3.762440 9.063700 -45.253818 5.342512 5.828986 -85.005311 -0.000001 0.000000 -0.000003 -0.000000 0.000001 -0.000001 3.036127 13.027199 -5.371408 -48.713705 27.172832 83.457050 0.000011 105.988273 -0.000031 -8.345354 17.548091 8.775655 -7.341098 13.749659 7.412356 9.855733 -44.489100 -3.903294 0.000002 -0.000004 -0.000001 -0.124384 -2.384774 45.108864 4.500600 -4.654573 88.071143 -0.000002 -0.000002 0.000003 -0.761630 -2.932895 39.031061 5.133884 -4.632756 95.881663 0.000000 -0.000001 -0.000004 0.154764 -4.068818 39.122675 6.509737 -4.273603 113.462884 0.000002 -0.000000 0.000003 -4.198874 -8.025535 44.637779 4.252895 -4.639612 85.014846 -0.000001 -0.000000 0.000001 0.000001 -0.000003 -0.000002 0.000000 -0.000001 0.000000 0.000000 -0.000001 0.000000 0.000000 -0.000001 0.000000 0.000000 -0.000001 0.000000 0.000000 -0.000001 0.000000 0.000000 -0.000001 0.000000 0.000000 0.000004 -0.000001 0.000000 0.000004 -0.000001 -0.000000 0.000004 -0.000000 -0.000000 -0.000000 -0.000000 
-1.563344 73.856308 1.085418 -5.368861 -45.993698 0.085756 0.000000 0.000002 0.000000 -29.848879 8.042107 18.372130 60.942827 -7.399035 4.088291 -28.647958 -7.880707 -14.948569 -0.000000 0.000000 0.000000 -0.000001 -0.000000 0.000001 -0.000002 -0.000001 -0.000003 -20.184078 -12.769324 -29.381589 60.502833 -8.654519 -7.804400 -32.065819 -7.818499 23.227476 0.000000 0.000001 -0.000000 -0.000001 0.000002 0.000006 0.000002 -0.000000 0.000000 9.621460 7.154345 -1.897242 2.382866 1.109460 -1.073439 2.401566 1.100692 -1.045855 -0.057994 13.152758 4.536977 8.891158 19.766185 -3.891121 0.000002 0.000000 0.000000 0.000002 0.000000 0.000000 0.000002 0.000000 0.000000 0.000002 0.000000 0.000000 0.000002 0.000000 0.000000 0.000002 0.000000 0.000000 0.000002 0.000000 0.000000 0.000002 0.000000 0.000000 0.000002 0.000000 0.000000 0.000002 0.000000 0.000000 0.000002 0.000000 0.000000 0.000002 0.000000 0.000000 0.000002 0.000000 0.000000 0.000002 0.000000 0.000000 0.000002 0.000000 0.000000 0.000002 0.000000 0.000000 0.000002 0.000000 0.000000 0.000002 0.000000 0.000000 0.000002 0.000000 0.000000 1.183349 3.599429 -8.974603 -53.425507 4.522208 -51.883763 0.000105 -105.213825 0.000119 2.694935 -6.785476 -16.625751 -6.141221 -11.690800 -6.761692 9.914129 42.595522 3.409853 0.000000 0.000003 0.000003 0.255312 3.378202 -45.814337 5.654066 5.847727 -88.067435 0.000003 0.000000 -0.000001 -0.461472 3.841586 -39.722690 6.450738 5.820343 -95.892871 0.000002 -0.000003 -0.000000 0.469723 4.966838 -39.799447 8.181087 5.368650 -113.502998 0.000000 -0.000001 0.000000 -3.762440 9.063702 -45.253818 5.342514 5.828985 -85.005311 -0.000000 -0.000001 0.000001 0.000000 -0.000003 -0.000001 3.025168 12.911346 -5.539061 -48.147936 26.895813 84.263559 0.000059 105.577178 -0.000068 -8.085386 17.722246 8.888123 -7.341098 13.749659 7.412354 9.855731 -44.489100 -3.903293 0.000001 -0.000002 0.000001 -0.124385 -2.384774 45.108864 4.500600 -4.654571 88.071150 0.000001 -0.000001 0.000001 -0.761629 -2.932896 39.031065 5.133882 -4.632756 95.881663 -0.000002 -0.000003 -0.000006 0.154762 -4.068818 39.122671 6.509739 -4.273604 113.462884 -0.000002 -0.000001 0.000001 -4.198872 -8.025536 44.637779 4.252895 -4.639610 85.014846 -0.000003 0.000001 0.000000 0.000002 0.000000 -0.000001 0.000000 0.000001 -0.000000 0.000000 0.000001 -0.000000 0.000000 0.000001 -0.000000 0.000000 0.000001 -0.000000 0.000000 0.000001 -0.000000 0.000000 0.000001 -0.000000 0.000000 0.000001 -0.000000 0.000000 0.000001 -0.000000 -0.000000 -0.000002 -0.000000 0.000000 0.000002 0.000000 
-1.680274 73.851151 1.534624 -5.136001 -45.649911 0.418140 -0.000000 -0.000001 -0.000000 -29.829519 8.228618 18.191403 61.090674 -7.207161 3.848846 -29.022990 -8.533945 -14.724667 -0.000000 -0.000002 0.000000 -0.000000 0.000004 -0.000003 -0.000006 0.000003 0.000000 -20.360859 -12.762513 -30.063723 60.934836 -8.689152 -7.727256 -31.392294 -7.537766 23.200556 -0.000000 0.000001 0.000001 0.000001 -0.000001 0.000002 -0.000002 0.000002 -0.000001 9.734678 7.192897 -2.032721 2.523093 1.222462 -1.220267 2.544998 1.213387 -1.187300 -0.119664 13.073307 4.516067 8.975802 19.311228 -3.677647 -0.000000 -0.000000 0.000000 -0.000000 -0.000000 0.000000 -0.000000 -0.000000 0.000000 -0.000000 -0.000000 0.000000 -0.000000 -0.000000 0.000000 -0.000000 -0.000000 0.000000 -0.000000 -0.000000 0.000000 -0.000000 -0.000000 0.000000 -0.000000 -0.000000 0.000000 -0.000000 -0.000000 0.000000 -0.000000 -0.000000 0.000000 -0.000000 -0.000000 0.000000 -0.000000 -0.000000 0.000000 -0.000000 -0.000000 0.000000 -0.000000 -0.000000 0.000000 -0.000000 -0.000000 0.000000 -0.000000 -0.000000 0.000000 -0.000000 -0.000000 0.000000 -0.000000 -0.000000 0.000000 1.271896 3.450431 -9.352721 -53.737695 4.019011 -51.821024 -0.000114 -104.376205 -0.000106 3.364575 -5.538212 -17.414088 -6.141223 -11.690801 -6.761690 9.914125 42.595519 3.409860 0.000002 -0.000003 0.000004 0.255311 3.378195 -45.814348 5.654066 5.847728 -88.067435 0.000001 -0.000001 0.000000 -0.461471 3.841581 -39.722686 6.450738 5.820341 -95.892864 -0.000002 -0.000002 0.000000 0.469723 4.966833 -39.799451 8.181088 5.368652 -113.502998 -0.000000 -0.000004 0.000001 -3.762439 9.063702 -45.253818 5.342516 5.828984 -85.005317 -0.000003 0.000003 0.000001 -0.000001 -0.000001 -0.000001 3.009248 12.882603 -5.845510 -47.901773 26.454226 85.051660 0.000186 105.041800 -0.000169 -8.061764 17.824024 9.078409 -7.341099 13.749657 7.412352 9.855732 -44.489100 -3.903297 0.000002 0.000002 -0.000004 -0.124386 -2.384776 45.108868 4.500600 -4.654574 88.071143 0.000000 0.000001 -0.000000 -0.761629 -2.932899 39.031058 5.133885 -4.632760 95.881656 0.000001 0.000001 -0.000005 0.154761 -4.068820 39.122671 6.509739 -4.273606 113.462891 -0.000001 -0.000003 0.000000 -4.198873 -8.025535 44.637769 4.252898 -4.639609 85.014839 0.000000 0.000001 0.000002 0.000001 0.000001 -0.000000 0.000000 -0.000002 0.000001 0.000000 -0.000002 0.000001 0.000000 -0.000002 0.000001 0.000000 -0.000002 0.000001 0.000000 -0.000002 0.000001 0.000000 -0.000002 0.000001 -0.000000 0.000001 -0.000000 -0.000000 0.000001 -0.000000 0.000000 -0.000003 -0.000000 -0.000000 -0.000001 -0.000000 
-1.815962 73.973389 1.951006 -4.690724 -45.169718 0.847766 0.000000 0.000001 -0.000000 -29.851741 8.422669 18.039558 60.805206 -7.043943 3.602377 -29.112489 -9.294374 -14.524249 0.000000 -0.000002 0.000000 0.000001 -0.000000 0.000001 -0.000004 -0.000000 -0.000001 -20.760240 -12.746887 -30.686203 61.395266 -8.725158 -7.577175 -30.192937 -7.072324 22.917552 0.000000 -0.000000 0.000001 -0.000002 -0.000002 0.000003 0.000000 -0.000003 -0.000001 9.793139 7.230378 -2.118835 2.594238 1.326388 -1.342159 2.618630 1.318489 -1.304864 -0.089427 12.994039 4.472792 9.137175 18.829715 -3.485252 -0.000000 -0.000000 -0.000000 -0.000000 -0.000000 -0.000000 -0.000000 -0.000000 -0.000000 -0.000000 -0.000000 -0.000000 -0.000000 -0.000000 -0.000000 -0.000000 -0.000000 -0.000000 -0.000000 -0.000000 -0.000000 -0.000000 -0.000000 -0.000000 -0.000000 -0.000000 -0.000000 -0.000000 -0.000000 -0.000000 -0.000000 -0.000000 -0.000000 -0.000000 -0.000000 -0.000000 -0.000000 -0.000000 -0.000000 -0.000000 -0.000000 -0.000000 -0.000000 -0.000000 -0.000000 -0.000000 -0.000000 -0.000000 -0.000000 -0.000000 -0.000000 -0.000000 -0.000000 -0.000000 -0.000000 -0.000000 -0.000000 1.361013 3.142954 -9.684679 -54.368528 3.505231 -51.369928 0.000142 -103.901787 0.000166 3.892661 -4.154471 -18.243934 -6.141220 -11.690800 -6.761687 9.914131 42.595519 3.409856 0.000000 0.000001 0.000002 0.255313 3.378200 -45.814341 5.654066 5.847730 -88.067435 -0.000003 0.000002 0.000001 -0.461471 3.841584 -39.722690 6.450739 5.820341 -95.892864 -0.000001 -0.000003 -0.000001 0.469724 4.966837 -39.799451 8.181090 5.368652 -113.502998 0.000000 0.000000 -0.000002 -3.762442 9.063699 -45.253814 5.342515 5.828988 -85.005317 -0.000000 0.000003 -0.000001 -0.000001 -0.000003 0.000000 2.995732 13.013984 -6.195494 -48.018163 25.955446 85.662026 0.000059 104.429604 -0.000056 -8.242436 17.789047 9.105790 -7.341097 13.749659 7.412349 9.855731 -44.489100 -3.903290 0.000000 0.000001 0.000000 -0.124382 -2.384772 45.108864 4.500601 -4.654572 88.071150 -0.000003 -0.000001 0.000001 -0.761626 -2.932895 39.031061 5.133885 -4.632752 95.881663 0.000001 0.000000 0.000000 0.154765 -4.068818 39.122668 6.509736 -4.273602 113.462884 0.000003 -0.000001 0.000001 -4.198871 -8.025535 44.637776 4.252902 -4.639609 85.014852 -0.000001 -0.000001 -0.000003 -0.000002 0.000001 -0.000000 -0.000000 -0.000002 0.000000 -0.000000 -0.000002 0.000000 -0.000000 -0.000002 0.000000 -0.000000 -0.000002 0.000000 -0.000000 -0.000002 0.000000 -0.000000 -0.000002 0.000000 -0.000001 -0.000002 0.000000 -0.000001 -0.000002 0.000000 -0.000001 -0.000001 0.000000 0.000000 0.000001 -0.000000 
